<svg xmlns="http://www.w3.org/2000/svg" viewBox="0 0 512 512" width="512" height="512">
  <defs>
    <linearGradient id="shieldGrad" x1="0%" y1="0%" x2="100%" y2="100%">
      <stop offset="0%" style="stop-color:#FF6B35;stop-opacity:1" />
      <stop offset="100%" style="stop-color:#D62828;stop-opacity:1" />
    </linearGradient>
    <linearGradient id="innerGrad" x1="0%" y1="0%" x2="0%" y2="100%">
      <stop offset="0%" style="stop-color:#FFF3E0;stop-opacity:1" />
      <stop offset="100%" style="stop-color:#FFE0B2;stop-opacity:1" />
    </linearGradient>
    <filter id="shadow1" x="-10%" y="-10%" width="130%" height="130%">
      <feDropShadow dx="0" dy="4" stdDeviation="8" flood-color="#00000033"/>
    </filter>
  </defs>
  
  <!-- Shield shape -->
  <path d="M256 28 L456 108 L456 248 C456 368 356 458 256 492 C156 458 56 368 56 248 L56 108 Z" 
        fill="url(#shieldGrad)" filter="url(#shadow1)"/>
  <path d="M256 52 L436 124 L436 248 C436 356 344 438 256 470 C168 438 76 356 76 248 L76 124 Z" 
        fill="url(#innerGrad)"/>
  
  <!-- Store/Shop icon -->
  <rect x="176" y="220" width="160" height="120" rx="8" fill="#FF6B35" opacity="0.9"/>
  <path d="M168 220 L256 160 L344 220 Z" fill="#D62828"/>
  <rect x="236" y="280" width="40" height="60" rx="4" fill="#FFF3E0"/>
  <rect x="192" y="240" width="32" height="32" rx="4" fill="#FFF3E0" opacity="0.8"/>
  <rect x="288" y="240" width="32" height="32" rx="4" fill="#FFF3E0" opacity="0.8"/>
  
  <!-- Handshake/Mitra symbol above -->
  <path d="M220 140 C220 140 240 120 256 130 C272 120 292 140 292 140" 
        stroke="#D62828" stroke-width="6" fill="none" stroke-linecap="round"/>
  <circle cx="220" cy="140" r="6" fill="#FF6B35"/>
  <circle cx="292" cy="140" r="6" fill="#FF6B35"/>
  
  <!-- Text -->
  <text x="256" y="400" text-anchor="middle" font-family="Arial, Helvetica, sans-serif" 
        font-size="42" font-weight="bold" fill="#D62828" letter-spacing="2">KIRANA</text>
  <text x="256" y="440" text-anchor="middle" font-family="Arial, Helvetica, sans-serif" 
        font-size="32" font-weight="600" fill="#FF6B35" letter-spacing="6">MITRA</text>
</svg>