<svg xmlns="http://www.w3.org/2000/svg" viewBox="0 0 512 512" width="512" height="512">
  <!-- Variant 17: Rounded square app icon - clean, modern flat -->
  
  <rect width="512" height="512" fill="#FFFFFF"/>
  
  <!-- Rounded square background -->
  <rect x="96" y="56" width="320" height="320" rx="64" fill="#2C3E50"/>
  
  <!-- Store silhouette - white on dark -->
  <g transform="translate(256, 195)">
    <!-- Roof -->
    <path d="M-80 10 L0 -50 L80 10" fill="#FFFFFF" opacity="0.95"/>
    
    <!-- Awning scallops -->
    <path d="M-80 10 Q-60 30 -40 10 Q-20 30 0 10 Q20 30 40 10 Q60 30 80 10" 
          fill="#C0392B"/>
    
    <!-- Store body -->
    <rect x="-72" y="14" width="144" height="85" fill="#FFFFFF" opacity="0.95"/>
    
    <!-- Door -->
    <rect x="-12" y="48" width="24" height="51" rx="12" fill="#2C3E50"/>
    
    <!-- Windows -->
    <rect x="-58" y="30" width="32" height="24" rx="4" fill="#2C3E50" opacity="0.6"/>
    <rect x="26" y="30" width="32" height="24" rx="4" fill="#2C3E50" opacity="0.6"/>
    
    <!-- Rupee on door -->
    <text x="0" y="82" text-anchor="middle" font-family="Arial, sans-serif" 
          font-size="16" fill="#FFFFFF" font-weight="bold">₹</text>
  </g>
  
  <!-- Brand text below the square -->
  <text x="256" y="425" text-anchor="middle" font-family="Georgia, serif" 
        font-size="48" font-weight="bold" fill="#2C3E50">KiranaMitra</text>
  
  <text x="256" y="460" text-anchor="middle" font-family="Arial, Helvetica, sans-serif" 
        font-size="13" fill="#95A5A6" letter-spacing="4">APNI DUKAAN, APNA HISAAB</text>
</svg>